<svg width="30" height="30" viewBox="0 0 30 30" fill="none" xmlns="http://www.w3.org/2000/svg">
<path fill-rule="evenodd" clip-rule="evenodd" d="M9.375 18.75C8.33947 18.75 7.5 19.5895 7.5 20.625C7.5 21.6605 8.33947 22.5 9.375 22.5C10.4105 22.5 11.25 21.6605 11.25 20.625C11.25 19.5895 10.4105 18.75 9.375 18.75ZM5.625 20.625C5.625 18.5539 7.30393 16.875 9.375 16.875C11.4461 16.875 13.125 18.5539 13.125 20.625C13.125 22.6961 11.4461 24.375 9.375 24.375C7.30393 24.375 5.625 22.6961 5.625 20.625Z" fill="#A5A5A5"/>
<path fill-rule="evenodd" clip-rule="evenodd" d="M22.7746 0.274587C22.9504 0.098772 23.1889 0 23.4375 0H29.0625C29.5803 0 30 0.419733 30 0.9375V6.5625C30 6.81114 29.9012 7.0496 29.7254 7.22541L27.8504 9.10041C27.6746 9.27623 27.4361 9.375 27.1875 9.375H22.5V14.0625C22.5 14.3111 22.4012 14.5496 22.2254 14.7254L18.4674 18.4834C18.6355 19.1535 18.75 19.8681 18.75 20.625C18.75 25.8021 14.5521 30 9.375 30C4.19786 30 0 25.8021 0 20.625C0 15.4479 4.19786 11.25 9.375 11.25C10.1319 11.25 10.8465 11.3645 11.5166 11.5326L22.7746 0.274587ZM23.8258 1.875L12.4567 13.2442C12.2129 13.4879 11.8552 13.5782 11.525 13.4794C10.8076 13.2647 10.0999 13.125 9.375 13.125C5.23339 13.125 1.875 16.4834 1.875 20.625C1.875 24.7666 5.23339 28.125 9.375 28.125C13.5166 28.125 16.875 24.7666 16.875 20.625C16.875 19.9001 16.7353 19.1924 16.5206 18.475C16.4218 18.1448 16.5121 17.7871 16.7558 17.5433L20.625 13.6742V8.4375C20.625 7.91973 21.0447 7.5 21.5625 7.5H26.7992L28.125 6.17417V1.875H23.8258Z" fill="#A5A5A5"/>
</svg>
