<svg width="24" height="24" viewBox="0 0 24 24" fill="none" xmlns="http://www.w3.org/2000/svg">
<path fill-rule="evenodd" clip-rule="evenodd" d="M10.7136 5.57157C10.7136 4.15133 11.865 3 13.2852 3H18.4283C19.8486 3 20.9999 4.15133 20.9999 5.57157C20.9999 6.99181 19.8486 8.14315 18.4283 8.14315H13.2852H13.2851L11.7724 9.65583C12.6651 10.0591 13.2863 10.9573 13.2863 12.0005C13.2863 13.0462 12.6622 13.9461 11.7661 14.348L12.8028 15.9031C12.9591 15.8734 13.1203 15.8579 13.2852 15.8579H18.4283C19.8486 15.8579 20.9999 17.0092 20.9999 18.4295C20.9999 19.8497 19.8486 21.0011 18.4283 21.0011H13.2852C11.865 21.0011 10.7136 19.8497 10.7136 18.4295C10.7136 17.537 11.1683 16.7507 11.8586 16.2896L10.7137 14.5721H5.57157C4.15133 14.5721 3 13.4208 3 12.0005C3 10.5803 4.15133 9.42896 5.57157 9.42896H10.585L12.1395 7.87447C11.2943 7.45315 10.7136 6.58017 10.7136 5.57157Z" fill="#23365B"/>
<path d="M18.4283 4H13.2852C12.4172 4 11.7136 4.70362 11.7136 5.57157C11.7136 6.43953 12.4172 7.14315 13.2852 7.14315H18.4283C19.2963 7.14315 19.9999 6.43953 19.9999 5.57157C19.9999 4.70362 19.2963 4 18.4283 4Z" fill="#E4CEFF"/>
<path d="M10.7147 10.429H5.57157C4.70362 10.429 4 11.1326 4 12.0005C4 12.8685 4.70362 13.5721 5.57157 13.5721H10.7147C11.5827 13.5721 12.2863 12.8685 12.2863 12.0005C12.2863 11.1326 11.5827 10.429 10.7147 10.429Z" fill="#BDF3C2"/>
<path d="M18.4283 16.8579H13.2852C12.4172 16.8579 11.7136 17.5615 11.7136 18.4295C11.7136 19.2974 12.4172 20.0011 13.2852 20.0011H18.4283C19.2963 20.0011 19.9999 19.2974 19.9999 18.4295C19.9999 17.5615 19.2963 16.8579 18.4283 16.8579Z" fill="#97C9FF"/>
</svg>
