<svg width="24" height="24" viewBox="0 0 24 24" fill="none"
  xmlns="http://www.w3.org/2000/svg">
  <path d="M19.5606 19.2944L15.1944 12.4313L15.1726 12.4632L15.0199 12.7059L13.7047 14.7977L13.6954 14.8105L13.686 14.8233C13.5956 14.9606 13.4273 15.2225 13.3525 15.3534L13.337 15.379L13.3214 15.4045L12.7324 16.3435L14.3716 19.0963C14.5025 19.3135 14.6646 19.5083 14.8578 19.6776C15.0947 19.8852 15.4032 19.9906 15.7678 19.9906H20L19.5543 19.2912L19.5606 19.2944Z" fill="#B9E1E0"/>
  <path d="M15.1632 10.8822L19.3518 4.71218L19.8348 4H15.7304C15.4562 4 15.2162 4.07345 15.0167 4.21397C14.8422 4.33533 14.6864 4.51417 14.5368 4.75369L12.9599 7.27665L15.0323 10.6747L15.1601 10.8854L15.1632 10.8822Z" fill="#B9E1E0"/>
  <path d="M12.5142 14.0375L12.5267 14.0183L13.8418 11.9265L13.9945 11.6838L13.845 11.4411L9.72185 4.68341C9.59408 4.45986 9.42891 4.28421 9.2388 4.17244C9.04246 4.05747 8.78379 4.00317 8.4441 4.00317H4.19322L4.66069 4.71216L9.32918 11.77L4.455 19.2974L4 20H7.99532C8.25087 20 8.48149 19.9361 8.67783 19.8148C8.74328 19.7732 8.80561 19.7253 8.86482 19.671C8.9552 19.588 9.03935 19.4986 9.11726 19.406C9.19517 19.3134 9.26373 19.2176 9.32918 19.1186L12.1465 14.6347C12.1776 14.5804 12.2182 14.5166 12.2587 14.4495C12.2992 14.3824 12.3428 14.3122 12.3833 14.2515C12.402 14.2195 12.4238 14.1908 12.4394 14.1653C12.4737 14.111 12.5018 14.0694 12.5173 14.0471L12.5142 14.0375Z" fill="#B9E1E0"/>
</svg>
