<?xml version="1.0" encoding="UTF-8"?>
<svg width="24px" height="24px" viewBox="0 0 24 24" version="1.1" xmlns="http://www.w3.org/2000/svg" xmlns:xlink="http://www.w3.org/1999/xlink">
    <!-- Generator: sketchtool 52.3 (67297) - http://www.bohemiancoding.com/sketch -->
    <desc>Created with sketchtool.</desc>
    <g id="Kitchen-Sink" stroke="none" stroke-width="1" fill="none" fill-rule="evenodd">
        <g id="Iconography" transform="translate(-644.000000, -112.000000)" fill="#B9E1E0">
            <g id="Parse" transform="translate(647.000000, 114.000000)">
                <path d="M2.4864,17.3275692 L15.4094769,17.3275692 L15.4094769,7.17372308 L2.4864,7.17372308 L2.4864,17.3275692 Z M15.4094769,2.55833846 C16.4294769,2.55833846 17.2556308,3.38467692 17.2556308,4.40449231 L17.2556308,17.3275692 C17.2556308,18.3475692 16.4294769,19.1737231 15.4094769,19.1737231 L2.4864,19.1737231 C1.4664,19.1737231 0.640246154,18.3475692 0.640246154,17.3275692 L0.649476923,4.40449231 C0.649476923,3.38467692 1.4664,2.55833846 2.4864,2.55833846 L3.40947692,2.55833846 L3.40947692,0.712184615 L5.25563077,0.712184615 L5.25563077,2.55833846 L12.6402462,2.55833846 L12.6402462,0.712184615 L14.4864,0.712184615 L14.4864,2.55833846 L15.4094769,2.55833846 Z M8.44022769,8.32764308 L9.45561231,8.32764308 L9.45561231,10.4198892 L8.44022769,10.4198892 L8.44022769,8.32764308 Z M11.2325354,9.06359619 L11.9505207,9.78158154 L10.4709969,11.2611053 L9.75301158,10.54312 L11.2325354,9.06359619 Z M12.6863815,11.5584123 L12.6863815,12.5737969 L10.5941354,12.5737969 L10.5941354,11.5584123 L12.6863815,11.5584123 Z M11.9505207,14.35072 L11.2325354,15.0687053 L9.75301158,13.5891815 L10.4709969,12.8711962 L11.9505207,14.35072 Z M9.45561231,15.8045662 L8.44022769,15.8045662 L8.44022769,13.71232 L9.45561231,13.71232 L9.45561231,15.8045662 Z M6.66330462,15.0687053 L5.94531927,14.35072 L7.42484308,12.8711962 L8.14282842,13.5891815 L6.66330462,15.0687053 Z M5.20945846,12.5737969 L5.20945846,11.5584123 L7.30170462,11.5584123 L7.30170462,12.5737969 L5.20945846,12.5737969 Z M5.94531927,9.78158154 L6.66330462,9.06359619 L8.14282842,10.54312 L7.42484308,11.2611053 L5.94531927,9.78158154 Z" id="Combined-Shape"></path>
            </g>
        </g>
    </g>
</svg>
