<?xml version="1.0" encoding="UTF-8"?>
<svg width="24px" height="24px" viewBox="0 0 24 24" version="1.1" xmlns="http://www.w3.org/2000/svg" xmlns:xlink="http://www.w3.org/1999/xlink">
    <!-- Generator: sketchtool 52.3 (67297) - http://www.bohemiancoding.com/sketch -->
    <desc>Created with sketchtool.</desc>
    <g id="Kitchen-Sink" stroke="none" stroke-width="1" fill="none" fill-rule="evenodd">
        <g id="Iconography" transform="translate(-716.000000, -268.000000)" fill="#B9E1E0">
            <g id="Remove-Non-Paragraph" transform="translate(721.000000, 274.000000)">
                <path d="M2.82398154,10.1470586 L1.34705846,11.6239816 L0.69434451,10.9712677 L2.17126759,9.49434462 L0.69434451,8.01742154 L1.34705846,7.36470759 L2.82398154,8.84163066 L4.30090462,7.36470759 L4.95361857,8.01742154 L3.47669549,9.49434462 L4.95361857,10.9712677 L4.30090462,11.6239816 L2.82398154,10.1470586 Z M12.1396738,1.30375385 L12.1396738,11.5454769 L10.3747508,11.5454769 L10.3747508,1.30375385 L9.04238154,1.30375385 L9.04238154,11.5454769 L7.27764308,11.5454769 L7.27764308,6.23146426 C6.18266366,6.17683296 5.33501776,5.85999342 4.74586432,5.27252594 C4.11505312,4.64391967 3.79321231,3.93715909 3.79321231,3.16356923 C3.79321231,2.50805092 4.0137732,1.91926767 4.44955751,1.40850378 C5.21942597,0.50298801 6.46643367,0.0576 8.16952,0.0576 L13.1694585,0.0576 L13.1694585,1.30375385 L12.1396738,1.30375385 Z" id="Combined-Shape"></path>
            </g>
        </g>
    </g>
</svg>
